<svg width="130" height="130" viewBox="0 0 130 130" fill="none" xmlns="http://www.w3.org/2000/svg">
<path d="M116.39 56.625L107.17 65.365C103.9 68.465 101.95 70.915 105.45 77.155L111.74 87.785L99.02 89.495C94.43 90.115 90.8 91.015 90.43 98.235L89.23 110.495L78.3 104.215C74.11 101.815 70.79 100.495 65.61 106.435L57.46 116.055L50.6 104.035C47.8 98.485 46.52 97.005 39.4 99.465L28.57 102.355L30.98 90.285C32.75 82.845 30.93 81.305 25.32 79.665L13.6 74.625L23.07 65.985C29.59 60.975 27.25 57.745 24.79 53.835L18.26 43.455L31.01 41.905C39.16 41.725 39.35 37.615 39.74 33.015L40.77 20.745L52.06 26.365C55.99 28.325 60.8 27.475 63.84 24.305L72.11 13.945L78.68 26.545C80.74 30.345 85.14 32.335 89.47 31.425L101.43 28.895L99.57 41.205C98.04 47.935 99.9 48.905 104.99 51.245L116.4 56.625H116.39Z" fill="#E98D22"/>
<path d="M78.618 94.0809C94.662 86.5516 101.565 67.4418 94.0354 51.3978C86.5061 35.3539 67.3963 28.4513 51.3523 35.9805C35.3083 43.5097 28.4058 62.6195 35.935 78.6635C43.4642 94.7075 62.574 101.61 78.618 94.0809Z" fill="#FDDC54"/>
</svg>
